<?xml version="1.0" encoding="UTF-8" standalone="no"?>
<!-- Created with Inkscape (http://www.inkscape.org/) -->

<svg
   version="1.1"
   id="svg132"
   width="512"
   height="512"
   viewBox="0 0 512 512"
   sodipodi:docname="6planete_a.png"
   inkscape:version="1.2.2 (732a01da63, 2022-12-09)"
   xml:space="preserve"
   inkscape:export-filename="svg\3planete.svg"
   inkscape:export-xdpi="96"
   inkscape:export-ydpi="96"
   inkscape:dataloss="true"
   xmlns:inkscape="http://www.inkscape.org/namespaces/inkscape"
   xmlns:sodipodi="http://sodipodi.sourceforge.net/DTD/sodipodi-0.dtd"
   xmlns="http://www.w3.org/2000/svg"
   xmlns:svg="http://www.w3.org/2000/svg"><defs
     id="defs136" /><sodipodi:namedview
     id="namedview134"
     pagecolor="#505050"
     bordercolor="#eeeeee"
     borderopacity="1"
     inkscape:showpageshadow="0"
     inkscape:pageopacity="0"
     inkscape:pagecheckerboard="0"
     inkscape:deskcolor="#505050"
     showgrid="false"
     inkscape:zoom="1.1531917"
     inkscape:cx="251.04238"
     inkscape:cy="319.54791"
     inkscape:window-width="1920"
     inkscape:window-height="1051"
     inkscape:window-x="-9"
     inkscape:window-y="-9"
     inkscape:window-maximized="1"
     inkscape:current-layer="g138" /><g
     inkscape:groupmode="layer"
     inkscape:label="Image"
     id="g138"><path
       id="path626"
       style="fill:#198853;fill-opacity:1;stroke-width:0.63709"
       d="m 392.00977,39.136719 a 257.11249,264.04977 0 0 0 -23.20313,1.705078 257.11249,264.04977 0 0 0 -35.84766,8.009765 257.11249,264.04977 0 0 0 -34.37109,13.166016 257.11249,264.04977 0 0 0 -32.19727,18.054688 257.11249,264.04977 0 0 0 -29.36718,22.576174 257.11249,264.04977 0 0 0 -25.93946,26.64062 257.11249,264.04977 0 0 0 -21.98437,30.16016 257.11249,264.04977 0 0 0 -17.58008,33.06445 257.11249,264.04977 0 0 0 -12.82031,35.29883 257.11249,264.04977 0 0 0 -7.79883,36.81445 257.11249,264.04977 0 0 0 -2.61719,37.57813 257.11249,264.04977 0 0 0 2.61719,37.57812 257.11249,264.04977 0 0 0 7.79883,36.8125 257.11249,264.04977 0 0 0 12.82031,35.29883 257.11249,264.04977 0 0 0 17.58008,33.06641 257.11249,264.04977 0 0 0 21.98437,30.16015 257.11249,264.04977 0 0 0 25.93946,26.63868 257.11249,264.04977 0 0 0 13.24218,10.18164 257.28796,256.04889 0 0 0 5.55079,0.39453 A 257.28796,256.04889 0 0 0 513.10352,256.28711 257.28796,256.04889 0 0 0 392.00977,39.136719 Z"
       inkscape:export-filename="svg\1_planete.svg"
       inkscape:export-xdpi="96"
       inkscape:export-ydpi="96" /><path
       id="path7615"
       style="fill:#005d5c;fill-opacity:1;stroke-width:0.63709"
       d="M 255.81641,0.23828125 A 257.28796,256.04889 0 0 0 -1.4726562,256.28711 257.28796,256.04889 0 0 0 250.26562,511.94141 257.11249,264.04977 0 0 1 237.02344,501.75977 257.11249,264.04977 0 0 1 211.08398,475.12109 257.11249,264.04977 0 0 1 189.09961,444.96094 257.11249,264.04977 0 0 1 171.51953,411.89453 257.11249,264.04977 0 0 1 158.69922,376.5957 a 257.11249,264.04977 0 0 1 -7.79883,-36.8125 257.11249,264.04977 0 0 1 -2.61719,-37.57812 257.11249,264.04977 0 0 1 2.61719,-37.57813 257.11249,264.04977 0 0 1 7.79883,-36.81445 257.11249,264.04977 0 0 1 12.82031,-35.29883 257.11249,264.04977 0 0 1 17.58008,-33.06445 257.11249,264.04977 0 0 1 21.98437,-30.16016 257.11249,264.04977 0 0 1 25.93946,-26.64062 257.11249,264.04977 0 0 1 29.36718,-22.576174 257.11249,264.04977 0 0 1 32.19727,-18.054688 257.11249,264.04977 0 0 1 34.37109,-13.166016 257.11249,264.04977 0 0 1 35.84766,-8.009765 257.11249,264.04977 0 0 1 23.20313,-1.705078 A 257.28796,256.04889 0 0 0 255.81641,0.23828125 Z" /><path
       id="path626-9"
       style="fill:#00ff0a;fill-opacity:0.403458;stroke-width:0.63709"
       d="m 157.21289,365.28125 a 245.83943,252.34312 0 0 1 -0.55273,-1.66797 245.83943,252.34312 0 0 1 -6.27344,-32.37305 245.83943,252.34312 0 0 1 -2.10352,-32.9375 245.83943,252.34312 0 0 1 2.10352,-32.9375 245.83943,252.34312 0 0 1 6.27344,-32.37304 245.83943,252.34312 0 0 1 7.56836,-22.88281 l -7.86914,1.43554 c -7.6871,2.96367 -13.48994,7.15289 -17.32227,12.10938 l -4.32813,9.40625 0.4961,9.91015 -4.29297,15.02149 -10.67969,19.61328 -6.48828,23.92187 4.59766,25.14063 8.125,16.55664 13.18359,14.71484 16.86133,7.35938 z" /><path
       id="path4720"
       style="fill:#59ac00;fill-opacity:1;stroke-width:0.63709"
       d="m 394.12305,45.958984 a 245.83943,252.34312 0 0 0 -32.08789,2.160157 245.83943,252.34312 0 0 0 -31.53907,6.439453 245.83943,252.34312 0 0 0 -30.45117,10.609375 245.83943,252.34312 0 0 0 -28.8418,14.599609 245.83943,252.34312 0 0 0 -26.73632,18.337891 245.83943,252.34312 0 0 0 -24.17774,21.763671 245.83943,252.34312 0 0 0 -21.20312,24.81641 245.83943,252.34312 0 0 0 -17.86524,27.44531 245.83943,252.34312 0 0 0 -14.22265,29.60352 245.83943,252.34312 0 0 0 -1.34961,4.08203 l 6.19531,-1.16993 12.26172,-8.125 8.73828,-16.24804 7.05078,-11.03711 13.49024,-1.83985 9.19726,3.5254 15.33008,14.25585 9.19727,5.51954 4.90429,-1.83985 -0.61328,-4.90625 -2.29883,-17.01367 2.75977,-4.44727 4.75195,1.22657 28.66602,26.36718 6.28515,0.15235 38.32227,-12.41602 6.13281,8.58399 -1.22656,11.03711 -5.51953,8.58398 -5.51758,5.51953 -41.55664,14.82617 -8.87695,0.043 -35.10352,-22.22656 -10.31055,-3.4707 -10.23242,-0.36328 -53.44726,9.75586 a 245.83943,252.34312 0 0 0 -7.56836,22.88281 245.83943,252.34312 0 0 0 -6.27344,32.37304 245.83943,252.34312 0 0 0 -2.10352,32.9375 245.83943,252.34312 0 0 0 2.10352,32.9375 245.83943,252.34312 0 0 0 6.27344,32.37305 245.83943,252.34312 0 0 0 0.55273,1.66797 l 12.02344,-0.28906 57.17773,-10.27149 5.82617,6.43946 13.79493,17.01562 15.63672,12.10938 18.54882,7.05078 -1.22656,21.46094 4.13867,34.03124 7.66407,16.86329 12.7246,13.79687 18.0879,7.9707 13.02929,2.14649 14.7168,-3.52735 8.27734,-16.24804 23.76172,-67.29688 4.29102,-12.26172 7.81836,-7.81836 45.98828,-42.92187 1.99219,-16.93945 2.0957,-9.42188 -1.02149,-4.14453 -10.65429,-0.53711 -21.07813,-1.91601 -11.03711,-12.41602 -57.02539,-74.34766 3.83203,-0.76757 12.26368,3.83398 12.11132,7.50977 34.03125,46.14257 10.26953,13.1836 6.39844,0.77148 6.32617,-4.29883 12.72266,-10.57617 11.84961,-9.15234 5.47266,-8.01758 3.40234,-10.19336 0.88867,-13.71875 -1.22461,-13.33789 -3.98633,-2.75781 -8.89062,2.60547 -9.81055,1.22656 -7.35937,-4.29297 -4.29102,-21.61523 3.74414,-1.42774 80.68164,26.86719 C 502.21526,151.37947 461.4548,86.909058 402.64453,46.162109 a 245.83943,252.34312 0 0 0 -8.52148,-0.203125 z m -48.83594,89.240236 0.46094,3.37305 -0.46094,3.21875 -1.22656,7.51171 -7.50977,7.97071 -9.04492,5.05859 -7.66406,-0.15234 -7.05274,-0.30664 -13.02929,-2.60743 -3.37305,-1.68554 -0.15234,-3.06641 0.76562,-3.52539 2.45312,-3.83203 5.0586,-1.22656 6.89844,-0.15235 12.87695,0.30664 c 0,0 4.59882,-1.68784 16.70898,-9.19921 z" /><path
       id="path4718"
       style="fill:#008b05;fill-opacity:1;stroke-width:0.63709"
       d="M 291.2168,2.7207031 276.54102,26.980469 235.53711,5.5195312 l -5.02344,-0.109375 -58.21094,47.9355468 -6.23632,8.994141 -4.18946,9.248047 -1.22265,11.458984 2.75586,11.6875 c 2.20147,3.625082 8.30792,0.457936 13.18359,-0.765625 7.10211,-1.841291 4.17098,-1.031241 17.01367,-5.064453 l 11.80664,-3.060547 -3.67968,9.197266 -17.01563,15.636714 -4.08203,5.54493 -3.28711,4.53711 -10.28516,1.18945 -8.55273,11.85156 -9.50391,5.07227 -2.98633,3.58203 13.9375,8.23047 -0.5332,10.91406 -13.66992,-1.44336 -9.4043,2.25391 -2.46875,9.50195 -3.35351,9.56836 c 0.0256,4.80981 -0.71506,5.93856 -0.68946,8.60156 l 4.13868,8.2793 9.04492,7.35937 12.56836,1.99219 10.05664,-1.89648 a 245.83943,252.34312 0 0 1 1.34961,-4.08203 245.83943,252.34312 0 0 1 14.22265,-29.60352 245.83943,252.34312 0 0 1 17.86524,-27.44531 245.83943,252.34312 0 0 1 21.20312,-24.81641 245.83943,252.34312 0 0 1 24.17774,-21.763671 245.83943,252.34312 0 0 1 26.73632,-18.337891 245.83943,252.34312 0 0 1 28.8418,-14.599609 245.83943,252.34312 0 0 1 30.45117,-10.609375 245.83943,252.34312 0 0 1 31.53907,-6.439453 245.83943,252.34312 0 0 1 32.08789,-2.160157 245.83943,252.34312 0 0 1 8.52148,0.203125 C 370.22339,23.69898 332.33795,8.4174235 291.2168,2.7207031 Z" /><path
       id="path626-9-9"
       style="fill:#e2e22c;fill-opacity:1;stroke-width:0.63709"
       d="m 165.01367,209.75586 -8.94726,1.63281 c -7.6871,2.96367 -13.48994,7.15289 -17.32227,12.10938 l -4.32812,9.40625 0.49609,9.91015 -4.29297,15.02149 -10.67969,19.61328 -6.48828,23.92187 4.59766,25.14063 8.125,16.55664 13.18359,14.71484 16.86133,7.35938 2.71094,-0.0645 a 245.83943,252.34312 0 0 1 -2.20117,-7.2539 245.83943,252.34312 0 0 1 -5.35157,-29.97266 245.83943,252.34312 0 0 1 -1.79297,-30.41601 245.83943,252.34312 0 0 1 1.79297,-30.41602 245.83943,252.34312 0 0 1 5.35157,-29.97461 245.83943,252.34312 0 0 1 8.28515,-27.28906 z" /><path
       id="path4715"
       style="fill:#ffff56;fill-opacity:1;stroke-width:0.63709"
       d="m 444.82031,83.464844 -6.47265,16.691406 -11.70508,23.84766 -10.40625,12.57421 -18.64453,6.07032 -25.58008,2.60156 -16.04297,0.43359 -11.70703,3.4668 -0.19336,0.0684 -0.002,0.0117 -7.50977,7.97265 -9.04492,5.0586 -7.66406,-0.1543 -7.05274,-0.30664 -2.97461,-0.5957 -0.24414,0.0859 -5.20312,6.07031 -1.30078,7.37109 1.30078,5.63672 1.59375,4.94922 23.62695,-7.6543 6.13281,8.58399 -1.22656,11.03711 -5.51953,8.58398 -5.51758,5.51953 -41.55664,14.82617 -8.87695,0.043 -35.10352,-22.22656 -10.31055,-3.4707 -10.23242,-0.36328 -52.36914,9.55859 a 245.83943,252.34312 0 0 0 -8.28515,27.28906 245.83943,252.34312 0 0 0 -5.35157,29.97461 245.83943,252.34312 0 0 0 -1.79297,30.41602 245.83943,252.34312 0 0 0 1.79297,30.41601 245.83943,252.34312 0 0 0 5.35157,29.97266 245.83943,252.34312 0 0 0 2.20117,7.2539 l 10.01367,-0.24218 12.64062,-2.27149 c 11.28754,-20.33504 19.59766,-29.14258 19.59766,-29.14257 0,0 13.4394,-8.67183 11.70508,-7.3711 -1.73432,1.30074 12.14062,-2.60156 12.14062,-2.60156 l 9.10547,0.86719 h 61.56836 l 35.11914,-0.4336 11.70703,-5.63476 7.3711,-5.20313 2.60156,-5.63672 4.33594,-3.46875 6.9375,-3.46875 9.10547,-0.43359 9.53711,1.30078 23.9121,4.34766 L 399.49609,298 342.4707,223.65234 l 3.83203,-0.76757 12.26368,3.83398 12.11132,7.50977 34.03125,46.14257 10.26954,13.1836 6.39843,0.77148 6.32617,-4.29883 12.72266,-10.57617 11.84961,-9.15234 5.47266,-8.01758 3.40234,-10.19336 0.88867,-13.71875 -1.22461,-13.33789 -3.98633,-2.75781 -8.89062,2.60547 -9.81055,1.22656 -7.35937,-4.29297 -4.29102,-21.61523 3.74414,-1.42774 49.12891,16.36133 -0.24414,-4.41211 -4.33594,-15.60742 -1.30078,-13.44141 0.86719,-18.64453 4.33594,-13.44141 4.50195,-11.70117 A 257.28796,256.04889 0 0 0 444.82031,83.464844 Z m -135,77.740236 34.24805,-11.98633 1.22461,-7.49805 0.46094,-3.2207 -0.46094,-3.37109 -4.29102,1.68554 c -12.11016,7.51138 -16.70898,9.19727 -16.70898,9.19727 l -12.87695,-0.30664 -6.89844,0.1543 -5.0586,1.22656 -2.45312,3.83203 -0.76563,3.52539 0.15235,3.06641 3.37304,1.68554 z" /><path
       style="fill:#008b05;fill-opacity:1;stroke-width:0.357286"
       d="m 138.72966,93.417702 c 4.18738,10.078978 9.60353,23.432378 9.60353,23.432378 l 1.90202,10.28552 0.0433,5.48445 c -1.52699,1.28586 -6.22314,4.89811 -7.35349,5.39069 l -8.38749,3.3994 -8.87563,-0.93747 -0.64049,-1.72731 3.55579,-6.98332 2.74765,-8.20539 0.47958,-6.88378 -1.0036,-1.44931 -2.95095,3.09561 -5.33369,2.79333 -4.04067,-4.36457 -1.21801,-5.05223 5.09705,-6.23603 c 0,0 1.83935,-3.92233 2.02868,-4.31559 0.68982,-1.432865 1.84784,-6.557498 1.84784,-6.557498 l 6.85578,-3.857868 z"
       id="path616"
       sodipodi:nodetypes="cccccccccccccccccsccc" /><path
       style="fill:#198853;fill-opacity:1;stroke-width:0.461102"
       d="m 340.77126,136.73772 c -12.11018,7.51138 -16.70898,9.19761 -16.70898,9.19761 l -12.87665,-0.30659 -6.8982,0.1533 -5.05869,1.22634 -2.45269,3.83234 -0.76647,3.52575 0.15329,3.06587 3.37246,1.68622 13.02994,2.60599 7.0515,0.30659 7.66467,0.15329 9.04431,-5.05868 7.51138,-7.97126 1.22634,-7.51138 0.45988,-3.21916 -0.45988,-3.37245 z"
       id="path4777" /><path
       style="fill:#198853;fill-opacity:1;stroke-width:0.461102"
       d="m 365.29052,112.08024 -4.3358,-4.55259 -8.67158,0.21679 -3.25185,5.41974 0.21679,3.90222 8.23801,10.4059 9.97232,12.14022 5.41974,9.32195 7.15406,3.68543 5.63653,-4.55259 1.51753,-4.76937 -2.1679,-6.50369 -13.44095,-16.6928 z"
       id="path4880" /></g></svg>
